<?xml version="1.0" encoding="UTF-8"?>
<svg version="1.1" xmlns="http://www.w3.org/2000/svg" width="512" height="512">
<path d="M0 0 C168.96 0 337.92 0 512 0 C512 168.96 512 337.92 512 512 C343.04 512 174.08 512 0 512 C0 343.04 0 174.08 0 0 Z " fill="#FEFDFD" transform="translate(0,0)"/>
<path d="M0 0 C13.67585646 9.27358238 25.41538311 21.38993173 36 34 C35.505 34.99 35.505 34.99 35 36 C34.48953125 35.57589844 33.9790625 35.15179688 33.453125 34.71484375 C16.3765552 20.93853301 -1.1775409 14.36355622 -23 16 C-32.19462628 17.70526903 -39.26835354 24.10721891 -44.8203125 31.38671875 C-57.5256793 51.21092171 -56.5441737 79.73654439 -52 102.125 C-42.57573818 144.65535212 -19.61889568 184.96645285 12 215 C13.00232287 215.99767172 14.00296294 216.99704581 15 218 C-6.26699734 211.70446765 -24.21950915 190.04839459 -37 173 C-37.4228125 172.44328613 -37.845625 171.88657227 -38.28125 171.31298828 C-68.19083652 131.76457017 -89.33059439 77.73338991 -82.5 27.57421875 C-79.56800301 12.59771141 -72.8407703 -1.18053855 -60 -10 C-40.30019335 -21.20965429 -17.15420903 -11.19056025 0 0 Z " fill="#118E63" transform="translate(217,119)"/>
<path d="M0 0 C0.33 0 0.66 0 1 0 C3.19928638 48.93412202 -21.62389923 94.97377509 -53 131 C-53.56847656 131.680625 -54.13695312 132.36125 -54.72265625 133.0625 C-74.29695982 156.29134107 -101.50133067 179.28780684 -133.01806641 182.18554688 C-146.19099467 183.1192657 -156.00447656 181.76446666 -166.4609375 172.91796875 C-174.5280315 164.59596658 -177.64876602 154.08892782 -180 143 C-180.18691406 142.20207031 -180.37382812 141.40414062 -180.56640625 140.58203125 C-184.12792715 119.37333474 -177.56663925 93.32050554 -169 74 C-167.91617623 77.25147132 -167.95764163 79.40958542 -168.078125 82.8203125 C-168.57473097 102.48238119 -167.93186025 118.34205656 -154.625 133.75 C-145.92747569 141.20502084 -137.08893404 144.67446029 -125.578125 144.33984375 C-93.71020761 141.3130874 -65.77079036 117.75488257 -46 94 C-33.71948427 78.71354694 -23.11720767 61.84610496 -15 44 C-14.66516602 43.26845703 -14.33033203 42.53691406 -13.98535156 41.78320312 C-7.96108773 28.46760026 -2.54523469 14.45225216 0 0 Z " fill="#1887C4" transform="translate(328,231)"/>
<path d="M0 0 C0.91620117 0.03577148 1.83240234 0.07154297 2.77636719 0.10839844 C43.60110394 1.96962604 90.0875725 12.89503921 119.10546875 43.65625 C127.79020988 53.34665204 131.52011736 63.15362251 131.24609375 75.984375 C130.27929011 87.83155607 124.16906193 97.73217192 115.65234375 105.78125 C99.59672297 119.21216694 80.03708533 125.98157839 60 131 C58.77240967 131.31759277 58.77240967 131.31759277 57.52001953 131.64160156 C56.73095215 131.83463867 55.94188477 132.02767578 55.12890625 132.2265625 C54.42967041 132.40010254 53.73043457 132.57364258 53.01000977 132.75244141 C50.74934723 133.03087112 49.15821089 132.67937515 47 132 C47.52843506 131.73372803 48.05687012 131.46745605 48.60131836 131.19311523 C61.5928465 124.7899391 61.5928465 124.7899391 73.30859375 116.375 C75 115 75 115 77.09765625 114.0625 C79.50524359 112.71781056 79.9013289 111.48816691 81 109 C81.93473639 107.75279458 82.89454693 106.52409616 83.875 105.3125 C90.72955658 96.34627073 92.95944759 87.1620241 92 76 C90.22596345 68.43753562 86.70305735 62.11726341 82 56 C81.15501953 54.89011719 81.15501953 54.89011719 80.29296875 53.7578125 C59.4702606 28.41986447 20.47864865 18.86958209 -10.515625 15.39038086 C-19.02520074 14.562442 -27.58398735 14.65348134 -36.125 14.6875 C-37.54848755 14.69023422 -37.54848755 14.69023422 -39.00073242 14.69302368 C-59.92840142 14.76073292 -78.88544615 17.21133958 -99 23 C-100.33207477 23.33832779 -101.66509521 23.67301668 -103 24 C-89.36768879 7.69171658 -53.9069188 2.77633764 -34.44335938 0.9453125 C-22.96620509 0.01871656 -11.5078096 -0.45959844 0 0 Z " fill="#ED2D2B" transform="translate(291,176)"/>
<path d="M0 0 C19.47 0 38.94 0 59 0 C59 19.47 59 38.94 59 59 C50.42 59 41.84 59 33 59 C32.67 48.44 32.34 37.88 32 27 C30.02 26.67 28.04 26.34 26 26 C26 39.2 26 52.4 26 66 C39.2 66 52.4 66 66 66 C66 44.22 66 22.44 66 0 C68.97 0 71.94 0 75 0 C75 25.08 75 50.16 75 76 C55.53 76 36.06 76 16 76 C16 56.53 16 37.06 16 17 C24.58 17 33.16 17 42 17 C42 27.89 42 38.78 42 50 C44.31 50 46.62 50 49 50 C49 36.8 49 23.6 49 10 C35.8 10 22.6 10 9 10 C9 31.78 9 53.56 9 76 C6.03 76 3.06 76 0 76 C0 50.92 0 25.84 0 0 Z " fill="#ED2826" transform="translate(212,210)"/>
<path d="M0 0 C4.20860033 3.74097807 7.2584247 7.56917052 9 13 C8.9418394 16.54779688 8.63813643 18.83633945 6.9375 21.9375 C3.72427107 23.69959328 0.6157826 23.17782537 -3 23 C-3.18175781 23.62648438 -3.36351563 24.25296875 -3.55078125 24.8984375 C-3.80214844 25.71570313 -4.05351563 26.53296875 -4.3125 27.375 C-4.67794922 28.59316406 -4.67794922 28.59316406 -5.05078125 29.8359375 C-6 32 -6 32 -9 34 C-15.51441408 34.86858854 -15.51441408 34.86858854 -18.9375 32.8671875 C-22.72785951 29.74667601 -25.72917269 26.35241901 -28 22 C-27.92138672 20.05908203 -27.92138672 20.05908203 -27 18 C-24.73095703 16.10888672 -24.73095703 16.10888672 -21.7578125 14.1796875 C-20.69175781 13.47972656 -19.62570313 12.77976562 -18.52734375 12.05859375 C-17.39340682 11.33045243 -16.2592903 10.60259072 -15.125 9.875 C-13.99799926 9.14039366 -12.87168849 8.40472762 -11.74609375 7.66796875 C-9.67674334 6.31752415 -7.60428207 4.97182673 -5.52783203 3.63232422 C-3.67562622 2.4362794 -1.83451327 1.22300885 0 0 Z " fill="#070707" transform="translate(78,364)"/>
<path d="M0 0 C0.87109375 2.65625 0.87109375 2.65625 1 6 C-0.95810653 8.2094641 -2.62169161 9.75117408 -4.9375 11.5 C-5.49501953 11.94730469 -6.05253906 12.39460938 -6.62695312 12.85546875 C-11.00369992 16.33890006 -15.52663376 19.64497532 -20 23 C-10.43 23.33 -0.86 23.66 9 24 C9.495 26.97 9.495 26.97 10 30 C5.78784767 31.88207402 1.57036528 33.75141779 -2.65258789 35.60913086 C-4.08869963 36.2430199 -5.52328668 36.88037488 -6.95629883 37.52124023 C-9.0151394 38.44126903 -11.07912263 39.34873676 -13.14453125 40.25390625 C-13.78526077 40.54342667 -14.4259903 40.83294708 -15.08613586 41.13124084 C-19.65838488 43.11387171 -19.65838488 43.11387171 -23 42 C-23 41.01 -23 40.02 -23 39 C-15.41 35.7 -7.82 32.4 0 29 C-13.86 28.505 -13.86 28.505 -28 28 C-28.33 26.68 -28.66 25.36 -29 24 C-26.48206384 21.93394305 -23.96012466 19.87282869 -21.4375 17.8125 C-20.73302734 17.23435547 -20.02855469 16.65621094 -19.30273438 16.06054688 C-14.97644139 12.53172725 -10.57875714 9.1949015 -6 6 C-6.70608398 6.2172876 -7.41216797 6.4345752 -8.13964844 6.65844727 C-11.34001046 7.63692033 -14.54484387 8.59985299 -17.75 9.5625 C-18.86117187 9.90474609 -19.97234375 10.24699219 -21.1171875 10.59960938 C-22.72207031 11.07817383 -22.72207031 11.07817383 -24.359375 11.56640625 C-25.34389648 11.86490479 -26.32841797 12.16340332 -27.34277344 12.47094727 C-30.02075415 13.00413214 -31.4607199 12.90876725 -34 12 C-34 11.01 -34 10.02 -34 9 C-29.64155243 7.71311521 -25.2815994 6.43151408 -20.92016602 5.15478516 C-19.43666701 4.71971196 -17.95358981 4.2831978 -16.47094727 3.84521484 C-14.33979794 3.21593004 -12.20718559 2.59184238 -10.07421875 1.96875 C-9.41161545 1.77188599 -8.74901215 1.57502197 -8.06632996 1.37219238 C-5.26360102 0.5581997 -2.93721986 0 0 0 Z " fill="#0D0D0D" transform="translate(56,312)"/>
<path d="M0 0 C2.22855574 -0.0814222 4.45797655 -0.13938079 6.6875 -0.1875 C8.54955078 -0.23970703 8.54955078 -0.23970703 10.44921875 -0.29296875 C15.20179198 0.09915775 17.68203836 1.68203836 21 5 C21.46650092 9.74275933 21.66962226 11.92860438 19.125 16 C17 18 17 18 15 18 C15 18.66 15 19.32 15 20 C15.66 20 16.32 20 17 20 C18.92471317 25.33835539 20.39891424 30.34979382 21 36 C19.68 36 18.36 36 17 36 C16.73445313 35.08476563 16.46890625 34.16953125 16.1953125 33.2265625 C15.84210938 32.03804687 15.48890625 30.84953125 15.125 29.625 C14.77695312 28.44164063 14.42890625 27.25828125 14.0703125 26.0390625 C13.22312581 22.93508442 13.22312581 22.93508442 11 21 C8.34462628 20.43479997 5.70855287 20.26211802 3 20 C3 24.95 3 29.9 3 35 C1.68 35 0.36 35 -1 35 C-1.13339991 23.29045225 -0.76532392 11.68485635 0 0 Z " fill="#030303" transform="translate(258,9)"/>
<path d="M0 0 C4.16691238 0.3092771 8.33347856 0.62300347 12.5 0.9375 C13.67304688 1.02451172 14.84609375 1.11152344 16.0546875 1.20117188 C22.06280908 1.65684402 28.03027205 2.17990124 34 3 C34.57628458 16.19051383 34.57628458 16.19051383 31 21 C28.24631394 23.23271843 26.51741376 23.93532328 23 24.375 C19.54998157 23.9437477 17.73662337 23.12848485 15 21 C11.80943289 16.15913955 12.8789122 10.57003881 13 5 C6.07 4.505 6.07 4.505 -1 4 C-0.67 2.68 -0.34 1.36 0 0 Z " fill="#030303" transform="translate(16,221)"/>
<path d="M0 0 C12.21 0 24.42 0 37 0 C36.67 1.65 36.34 3.3 36 5 C31.71 5 27.42 5 23 5 C22.690625 6.588125 22.38125 8.17625 22.0625 9.8125 C21.51076205 12.64475482 20.91407022 15.25778934 20 18 C20.7425 18.268125 21.485 18.53625 22.25 18.8125 C24.86636554 19.94229421 26.80187111 21.20893202 29 23 C28.67 24.65 28.34 26.3 28 28 C24.49903918 25.97158816 21.26762466 23.77507767 18.05859375 21.3125 C17.14529297 20.61382812 16.23199219 19.91515625 15.29101562 19.1953125 C14.34935547 18.47085937 13.40769531 17.74640625 12.4375 17 C10.56124762 15.56243512 8.68494737 14.12493273 6.80859375 12.6875 C5.98157959 12.05199219 5.15456543 11.41648437 4.30249023 10.76171875 C2.21108372 9.16150781 0.1096974 7.57598427 -2 6 C-1.34 4.02 -0.68 2.04 0 0 Z " fill="#171717" transform="translate(454,318)"/>
<path d="M0 0 C1.7800293 1.34765625 1.7800293 1.34765625 3.57421875 3.0625 C4.57001953 4.0050061 4.57001953 4.0050061 5.5859375 4.96655273 C6.27945312 5.63759033 6.97296875 6.30862793 7.6875 7 C8.75291016 8.01525757 8.75291016 8.01525757 9.83984375 9.05102539 C14.97034637 13.95624932 20.04300277 18.91907784 25 24 C24.34 24.66 23.68 25.32 23 26 C19.23751832 25.89831131 18.13251514 25.13914089 15.5 22.375 C13.28018207 19.72019553 13.28018207 19.72019553 10.5625 20 C7.59998208 21.15610455 4.80357259 22.50041466 2 24 C2 27.96 2 31.92 2 36 C0.02 36.495 0.02 36.495 -2 37 C-2.71484253 32.2132167 -3.42684978 27.42602351 -4.13623047 22.63842773 C-4.37796352 21.00973105 -4.62047154 19.38114919 -4.86376953 17.75268555 C-5.21330205 15.41224431 -5.56004741 13.07140457 -5.90625 10.73046875 C-6.07030334 9.63813179 -6.07030334 9.63813179 -6.2376709 8.52372742 C-6.66046772 5.64966609 -7 2.90979363 -7 0 C-3.81278784 -1.06240405 -3.03424168 -1.12360455 0 0 Z " fill="#0D0D0D" transform="translate(353,442)"/>
<path d="M0 0 C1.75 1.375 1.75 1.375 2.75 4.375 C1.7793392 6.96399152 0.74294957 9.39307264 -0.43359375 11.88671875 C-0.93512718 12.97905571 -0.93512718 12.97905571 -1.4467926 14.09346008 C-2.517919 16.42080633 -3.60249296 18.74159725 -4.6875 21.0625 C-5.41560721 22.63825925 -6.14283205 24.21442653 -6.86914062 25.79101562 C-8.65255211 29.65715478 -10.44804994 33.5174687 -12.25 37.375 C-13.57 36.055 -14.89 34.735 -16.25 33.375 C-15.94964844 32.84390625 -15.64929688 32.3128125 -15.33984375 31.765625 C-14.95957031 31.05921875 -14.57929687 30.3528125 -14.1875 29.625 C-13.61322266 28.58085937 -13.61322266 28.58085937 -13.02734375 27.515625 C-12.08097575 24.90954628 -12.11232737 23.89413225 -13.25 21.375 C-15.08536337 19.60651264 -15.08536337 19.60651264 -17.3125 18.125 C-18.611875 17.2175 -19.91125 16.31 -21.25 15.375 C-24.55 17.025 -27.85 18.675 -31.25 20.375 C-31.91 19.055 -32.57 17.735 -33.25 16.375 C-32.48856689 15.96660889 -31.72713379 15.55821777 -30.94262695 15.13745117 C-28.0999795 13.61205948 -25.25792513 12.08556995 -22.41625977 10.55834961 C-21.18960601 9.89938469 -19.96272137 9.24084937 -18.7355957 8.58276367 C-16.96504063 7.63314806 -15.19540184 6.68182466 -13.42578125 5.73046875 C-12.36270752 5.15965576 -11.29963379 4.58884277 -10.2043457 4.00073242 C-8.26996856 2.9362735 -6.36683929 1.81243173 -4.50463867 0.6262207 C-2.25 -0.625 -2.25 -0.625 0 0 Z " fill="#080808" transform="translate(114.25,406.625)"/>
<path d="M0 0 C1.18408203 2.10913086 1.18408203 2.10913086 2 5 C0.91357422 7.98266602 0.91357422 7.98266602 -0.9453125 11.25390625 C-1.27159637 11.83663803 -1.59788025 12.41936981 -1.93405151 13.01976013 C-2.62687261 14.24905482 -3.32845061 15.47344962 -4.03808594 16.69311523 C-5.11774702 18.5500256 -6.1702035 20.42030009 -7.21875 22.29492188 C-12.82247521 32.17416344 -12.82247521 32.17416344 -17 36 C-18.25 34.4375 -18.25 34.4375 -19 32 C-17.99996935 30.22575207 -16.99415482 28.4532407 -15.9140625 26.7265625 C-14.8080526 24.9479388 -14.8080526 24.9479388 -14.9375 22.4375 C-16.42006091 19.03633086 -18.50820887 16.74735946 -21 14 C-21.59167969 14.22816406 -22.18335938 14.45632812 -22.79296875 14.69140625 C-30.64147627 17.54657293 -30.64147627 17.54657293 -35 16 C-34 13 -34 13 -31.08837891 11.46606445 C-29.80599459 10.92017536 -28.51827325 10.38671966 -27.2265625 9.86328125 C-26.54701508 9.57897751 -25.86746765 9.29467377 -25.16732788 9.00175476 C-23.72861543 8.40246488 -22.28767157 7.80850837 -20.84472656 7.21948242 C-18.63590117 6.31695423 -16.4348435 5.39729911 -14.234375 4.47460938 C-12.83636297 3.89480639 -11.43793839 3.31599692 -10.0390625 2.73828125 C-9.37959625 2.46333328 -8.72013 2.18838531 -8.04067993 1.90510559 C-5.18887487 0.74723598 -3.11071169 0 0 0 Z " fill="#090909" transform="translate(441,91)"/>
<path d="M0 0 C4.15382427 1.55889442 6.46927877 4.59706433 9.1875 7.9375 C9.66292236 8.51072998 10.13834473 9.08395996 10.62817383 9.67456055 C12.09261683 11.44394337 13.54702771 13.22119179 15 15 C15.90594774 16.10181109 16.81218519 17.20338407 17.71875 18.3046875 C19.81952801 20.86417969 21.9133234 23.42900833 24 26 C23.34 26.99 22.68 27.98 22 29 C15.18165184 28.38370741 9.01031953 26.15310089 2.5625 23.9375 C1.44939453 23.56044922 0.33628906 23.18339844 -0.81054688 22.79492188 C-3.54226609 21.86871665 -6.27194861 20.93694191 -9 20 C-9.33 20.33 -9.66 20.66 -10 21 C-9.27554687 21.78503906 -8.55109375 22.57007813 -7.8046875 23.37890625 C7 39.4499356 7 39.4499356 7 42 C5.02 42.495 5.02 42.495 3 43 C-14.14140427 24.49873485 -14.14140427 24.49873485 -19 16 C-16 14 -16 14 -12.06640625 14.6484375 C-6.29896017 16.10461538 -0.6171482 17.86197987 5.0625 19.625 C6.11888672 19.94984375 7.17527344 20.2746875 8.26367188 20.609375 C10.84342348 21.40314472 13.42215108 22.20007714 16 23 C15.48050781 22.48993408 14.96101563 21.97986816 14.42578125 21.4543457 C10.4267006 17.49730714 6.57791396 13.52944768 3 9.1875 C2.236875 8.27355469 1.47375 7.35960937 0.6875 6.41796875 C-1 4 -1 4 -1 1 C-0.67 0.67 -0.34 0.34 0 0 Z " fill="#070707" transform="translate(399,406)"/>
<path d="M0 0 C0.0625 2.25 0.0625 2.25 -1 5 C-3.91199127 6.71972315 -6.81825939 7.7900423 -10 9 C-10 13.29 -10 17.58 -10 22 C-4.06 22.99 -4.06 22.99 2 24 C2 25.65 2 27.3 2 29 C-2.31428227 28.07058265 -6.62605875 27.13000111 -10.9375 26.1875 C-12.14986328 25.92646484 -13.36222656 25.66542969 -14.61132812 25.39648438 C-21.23679532 23.94211353 -27.61487783 22.29368466 -34 20 C-34.33 18.35 -34.66 16.7 -35 15 C-27.19337954 10.98373224 -19.32014664 7.16180665 -11.3125 3.5625 C-10.53471191 3.20865234 -9.75692383 2.85480469 -8.95556641 2.49023438 C-8.2238623 2.16474609 -7.4921582 1.83925781 -6.73828125 1.50390625 C-5.76435425 1.06800171 -5.76435425 1.06800171 -4.77075195 0.62329102 C-3 0 -3 0 0 0 Z " fill="#060606" transform="translate(497,220)"/>
<path d="M0 0 C1.65 0.66 3.3 1.32 5 2 C5.66 12.56 6.32 23.12 7 34 C10.1598386 27.92929876 10.1598386 27.92929876 13.31176758 21.85449219 C13.71032959 21.09297852 14.1088916 20.33146484 14.51953125 19.546875 C14.92276611 18.77182617 15.32600098 17.99677734 15.74145508 17.19824219 C17.00923895 14.98386276 18.42724905 13.00640655 20 11 C20.99 11.33 21.98 11.66 23 12 C21.93147242 17.56891434 18.80897031 22.40666398 16.1628418 27.35522461 C15.18864201 29.18535462 14.2339877 31.02486949 13.27929688 32.86523438 C12.35793945 34.59290039 12.35793945 34.59290039 11.41796875 36.35546875 C10.85875732 37.41403076 10.2995459 38.47259277 9.72338867 39.56323242 C8 42 8 42 5.78637695 42.8527832 C5.19687256 42.90136475 4.60736816 42.94994629 4 43 C2.14785244 39.00239326 1.63756806 35.55199637 1.3671875 31.16796875 C1.24150391 29.22954102 1.24150391 29.22954102 1.11328125 27.25195312 C1.03367343 25.89714602 0.95424863 24.54232816 0.875 23.1875 C0.78852326 21.81310283 0.7012914 20.43875295 0.61328125 19.06445312 C0.4014227 15.71002601 0.19727795 12.35531099 0 9 C-0.46841309 9.93851807 -0.46841309 9.93851807 -0.94628906 10.89599609 C-2.36866786 13.72864611 -3.8090461 16.55175698 -5.25 19.375 C-5.74113281 20.35984375 -6.23226562 21.3446875 -6.73828125 22.359375 C-7.22167969 23.30039062 -7.70507812 24.24140625 -8.203125 25.2109375 C-8.64301758 26.08024902 -9.08291016 26.94956055 -9.53613281 27.84521484 C-11.14746238 30.21706186 -12.35590465 30.98494467 -15 32 C-15.66 31.34 -16.32 30.68 -17 30 C-14.90203082 26.20880597 -12.80237826 22.4185508 -10.70117188 18.62915039 C-9.98684276 17.34034381 -9.27297143 16.05128338 -8.55957031 14.76196289 C-7.53310944 12.9070423 -6.50499696 11.05304567 -5.4765625 9.19921875 C-4.85861816 8.08377686 -4.24067383 6.96833496 -3.60400391 5.8190918 C-2.47568464 3.83603204 -1.26559568 1.89839352 0 0 Z " fill="#080808" transform="translate(143,431)"/>
<path d="M0 0 C5.80891746 4.81867247 11.13065552 10.01256408 16.4375 15.375 C17.26443359 16.20644531 18.09136719 17.03789063 18.94335938 17.89453125 C20.96455531 19.9274104 22.98336335 21.96259963 25 24 C24.34 25.32 23.68 26.64 23 28 C18.99935226 27.21158406 14.99960667 26.41867892 11 25.625 C9.31197266 25.29242188 9.31197266 25.29242188 7.58984375 24.953125 C1.68190417 23.77844695 -4.17312727 22.52812594 -10 21 C-9.57178955 21.39268066 -9.1435791 21.78536133 -8.70239258 22.18994141 C-6.73548468 23.99774359 -4.77398229 25.81131312 -2.8125 27.625 C-2.13896484 28.24246094 -1.46542969 28.85992187 -0.77148438 29.49609375 C3.14572764 33.1266805 6.6824861 36.81284653 10 41 C8.68 41.66 7.36 42.32 6 43 C-1.92 35.08 -9.84 27.16 -18 19 C-16.68 17.68 -15.36 16.36 -14 15 C-10.70019531 15.18847656 -10.70019531 15.18847656 -6.828125 16.140625 C-6.1457074 16.3016571 -5.46328979 16.46268921 -4.76019287 16.62860107 C-2.5842069 17.14737547 -0.41779113 17.69808508 1.75 18.25 C3.22474474 18.60760214 4.70000221 18.96309682 6.17578125 19.31640625 C9.79012092 20.18657307 13.39657767 21.08554779 17 22 C16.53102295 21.56131592 16.0620459 21.12263184 15.57885742 20.6706543 C13.4479108 18.6767969 11.31769829 16.68215687 9.1875 14.6875 C8.08051758 13.65206055 8.08051758 13.65206055 6.95117188 12.59570312 C5.88286133 11.59506836 5.88286133 11.59506836 4.79296875 10.57421875 C4.1383667 9.96151123 3.48376465 9.34880371 2.80932617 8.7175293 C1.17905198 7.16996771 -0.41921514 5.59789755 -2 4 C-1.34 2.68 -0.68 1.36 0 0 Z " fill="#080808" transform="translate(89,73)"/>
<path d="M0 0 C1.32 0 2.64 0 4 0 C6.64 10.89 9.28 21.78 12 33 C10.68 33.66 9.36 34.32 8 35 C2.56775137 30.48025507 -2.42589918 25.66524448 -7.375 20.625 C-8.79720206 19.17744675 -10.22155755 17.73200489 -11.6484375 16.2890625 C-12.26895996 15.65693848 -12.88948242 15.02481445 -13.52880859 14.37353516 C-14.78637334 12.88626157 -14.78637334 12.88626157 -16 13 C-14.02 21.58 -12.04 30.16 -10 39 C-11.65 38.67 -13.3 38.34 -15 38 C-15.99964751 33.62236427 -16.99649154 29.24410261 -17.99072266 24.86523438 C-18.32946692 23.37514936 -18.66898169 21.8852393 -19.00927734 20.39550781 C-19.49778851 18.25631316 -19.98354091 16.11650821 -20.46875 13.9765625 C-20.62186646 13.30879791 -20.77498291 12.64103333 -20.93273926 11.95303345 C-22 7.22774341 -22 7.22774341 -22 5 C-19.81323242 4.22338867 -19.81323242 4.22338867 -17 4 C-14.53637695 5.7824707 -14.53637695 5.7824707 -11.98828125 8.42578125 C-11.06595703 9.36744141 -10.14363281 10.30910156 -9.19335938 11.27929688 C-8.23271657 12.29002601 -7.27243398 13.30109763 -6.3125 14.3125 C-5.34189493 15.31320888 -4.36990365 16.31257524 -3.39648438 17.31054688 C-0.91824142 19.86183278 1.54201 22.4292449 4 25 C4.66 25.66 5.32 26.32 6 27 C5.81824219 26.25314941 5.63648438 25.50629883 5.44921875 24.73681641 C4.63045839 21.36677777 3.81518615 17.9959049 3 14.625 C2.71382813 13.449375 2.42765625 12.27375 2.1328125 11.0625 C1.86210937 9.94101562 1.59140625 8.81953125 1.3125 7.6640625 C1.06113281 6.62717285 0.80976563 5.5902832 0.55078125 4.52197266 C0 2 0 2 0 0 Z " fill="#020202" transform="translate(311,456)"/>
<path d="M0 0 C-0.33 0.99 -0.66 1.98 -1 3 C-5.75 2.125 -5.75 2.125 -8 1 C-12.98333716 0.51049345 -17.46516171 0.23258086 -22 2.5 C-25.55791772 6.94739715 -27.36970681 11.43529693 -27 17.1875 C-25.79966238 21.76378717 -24.84377191 23.25444864 -21 26 C-17.68799471 27.25592861 -14.44624926 28.12695019 -11 29 C-10.01 25.37 -9.02 21.74 -8 18 C-10.31 17.67 -12.62 17.34 -15 17 C-14.34 15.68 -13.68 14.36 -13 13 C-9.7 13.99 -6.4 14.98 -3 16 C-4.32 21.28 -5.64 26.56 -7 32 C-14.62402169 32.38602641 -20.46342225 32.21276321 -27 28 C-30.68285324 24.22507543 -32.13867493 21.05405543 -32.25 15.8125 C-32.14988414 10.20601177 -31.21479463 5.46088292 -27.3828125 1.203125 C-18.70361013 -6.61933207 -9.90821276 -4.54803209 0 0 Z " fill="#060606" transform="translate(214,460)"/>
<path d="M0 0 C23.60851592 11.24803638 23.60851592 11.24803638 27 19 C27.9258932 24.55535919 26.38549666 27.74315494 23.484375 32.30078125 C21.01616148 35.1262362 18.64976611 35.89170565 15 36.5 C5.42654034 36.19315834 -4.32634206 28.10570154 -12 23 C-11.67 21.68 -11.34 20.36 -11 19 C-5.63540075 20.90996432 -0.91257478 23.87888914 3.94140625 26.81054688 C8.95877842 29.73017963 13.43164515 31.3756163 19.375 30.75 C19.91125 30.5025 20.4475 30.255 21 30 C22.21260877 26.36217368 22.39544552 23.82264001 22 20 C17.97635432 15.02186986 12.71386524 12.27418722 7.1875 9.1875 C6.30384766 8.68541016 5.42019531 8.18332031 4.50976562 7.66601562 C2.34383552 6.43670394 0.17398315 5.21499483 -2 4 C-1.34 2.68 -0.68 1.36 0 0 Z " fill="#080808" transform="translate(48,121)"/>
<path d="M0 0 C1.65 0 3.3 0 5 0 C5.0093457 0.82725586 5.01869141 1.65451172 5.02832031 2.50683594 C5.08200319 6.25516415 5.1656571 10.00224162 5.25 13.75 C5.26417969 15.05195313 5.27835938 16.35390625 5.29296875 17.6953125 C5.32519531 18.94570313 5.35742188 20.19609375 5.390625 21.484375 C5.41157227 22.63647461 5.43251953 23.78857422 5.45410156 24.97558594 C6.10841797 28.60066269 7.09108733 29.8021255 10 32 C13 32.66666667 13 32.66666667 16 32 C18.84780619 29.76793569 19.84997666 28.45007001 21 25 C21.14889747 23.15533558 21.2479101 21.30642725 21.31640625 19.45703125 C21.35830078 18.38388672 21.40019531 17.31074219 21.44335938 16.20507812 C21.48267578 15.08552734 21.52199219 13.96597656 21.5625 12.8125 C21.60568359 11.68134766 21.64886719 10.55019531 21.69335938 9.38476562 C21.79949099 6.58996646 21.90154385 3.79507838 22 1 C23.32 1 24.64 1 26 1 C26.08746928 5.04152915 26.14054982 9.08281305 26.1875 13.125 C26.21263672 14.26710938 26.23777344 15.40921875 26.26367188 16.5859375 C26.32386705 23.48831705 26.05214566 28.31199067 21.5 33.8125 C17.64343027 36.8656177 12.65066459 36.42576507 8 36 C4.04153071 34.62314112 3.22884595 33.46761776 1.37890625 29.6875 C-0.6866844 23.911158 -0.32278903 18.05678576 -0.1875 12 C-0.17396484 10.84371094 -0.16042969 9.68742187 -0.14648438 8.49609375 C-0.11137044 5.66356996 -0.06219 2.83203693 0 0 Z " fill="#090909" transform="translate(238,463)"/>
<path d="M0 0 C0.85785424 12.68398772 1.11941996 25.28840915 1 38 C-1.203125 38.796875 -1.203125 38.796875 -4 39 C-6.359375 37.078125 -6.359375 37.078125 -8.75 34.25 C-9.17684082 33.7535498 -9.60368164 33.25709961 -10.04345703 32.74560547 C-11.38136773 31.17870526 -12.69244137 29.59227684 -14 28 C-14.82757813 27.00742187 -15.65515625 26.01484375 -16.5078125 24.9921875 C-20.05229191 20.69903917 -23.5241265 16.34873859 -27 12 C-26.34 11.34 -25.68 10.68 -25 10 C-22.01048644 10.11281183 -21.04255293 10.95590117 -18.95703125 13.1171875 C-18.24933594 14.02726562 -17.54164063 14.93734375 -16.8125 15.875 C-15.77029297 17.20144531 -15.77029297 17.20144531 -14.70703125 18.5546875 C-13.81371094 19.69164063 -12.92039063 20.82859375 -12 22 C-7.545 27.445 -7.545 27.445 -3 33 C-3.66 22.77 -4.32 12.54 -5 2 C-2 0 -2 0 0 0 Z " fill="#0A0A0A" transform="translate(175,22)"/>
<path d="M0 0 C0.66 6.27 1.32 12.54 2 19 C0.68 19 -0.64 19 -2 19 C-2.33 14.38 -2.66 9.76 -3 5 C-6.96 5 -10.92 5 -15 5 C-14.67 6.32 -14.34 7.64 -14 9 C-13.93375493 10.74886981 -13.91447405 12.50002748 -13.9375 14.25 C-13.94652344 15.14203125 -13.95554687 16.0340625 -13.96484375 16.953125 C-13.97644531 17.62859375 -13.98804687 18.3040625 -14 19 C-14.99 19.33 -15.98 19.66 -17 20 C-17.33 15.38 -17.66 10.76 -18 6 C-24.435 6.495 -24.435 6.495 -31 7 C-30.67 12.28 -30.34 17.56 -30 23 C-30.99 23 -31.98 23 -33 23 C-33.33868777 20.79248152 -33.67071689 18.58394089 -34 16.375 C-34.185625 15.14523437 -34.37125 13.91546875 -34.5625 12.6484375 C-34.9546362 9.3783017 -35.03241849 6.28642422 -35 3 C-30.85518522 2.49131204 -26.70901276 1.99464043 -22.5625 1.5 C-20.81549805 1.28537109 -20.81549805 1.28537109 -19.03320312 1.06640625 C-17.88916016 0.93105469 -16.74511719 0.79570312 -15.56640625 0.65625 C-14.00321655 0.46772461 -14.00321655 0.46772461 -12.40844727 0.27539062 C-8.28471775 -0.05779231 -4.13716762 0 0 0 Z " fill="#040404" transform="translate(49,269)"/>
<path d="M0 0 C0 0.99 0 1.98 0 3 C-1.39417773 3.34019152 -2.79044658 3.67181779 -4.1875 4 C-4.96480469 4.185625 -5.74210938 4.37125 -6.54296875 4.5625 C-9 5 -9 5 -14 5 C-13.34 8.96 -12.68 12.92 -12 17 C-10.618125 16.67 -9.23625 16.34 -7.8125 16 C-4.4688386 15.25110423 -1.44376933 14.77782133 2 15 C2 15.99 2 16.98 2 18 C0.58461283 18.33872513 -0.83237963 18.67074624 -2.25 19 C-3.03890625 19.185625 -3.8278125 19.37125 -4.640625 19.5625 C-7 20 -7 20 -11 20 C-10.67 24.29 -10.34 28.58 -10 33 C-2.08 32.01 -2.08 32.01 6 31 C5.67 32.32 5.34 33.64 5 35 C-0.94 35.99 -6.88 36.98 -13 38 C-14.98 26.45 -16.96 14.9 -19 3 C-5 0 -5 0 0 0 Z " fill="#020202" transform="translate(224,11)"/>
<path d="M0 0 C1.68407396 0.72565788 3.33754139 1.52151262 4.984375 2.328125 C4.654375 3.648125 4.324375 4.968125 3.984375 6.328125 C3.324375 5.998125 2.664375 5.668125 1.984375 5.328125 C-1.87623533 4.04125489 -4.95712783 4.19054882 -9.015625 4.328125 C-9.94943461 8.85953153 -9.94943461 8.85953153 -9.015625 13.328125 C-7.69990771 14.02891758 -6.36383626 14.69208362 -5.015625 15.328125 C-2.58585924 17.39752101 -0.64774066 19.58017516 0.984375 22.328125 C1.21000626 26.69032944 0.43811554 28.64019579 -1.953125 32.265625 C-6.29437184 35.18932185 -9.92378516 35.10773684 -15.015625 34.328125 C-18.640625 32.828125 -18.640625 32.828125 -21.015625 31.328125 C-21.015625 30.008125 -21.015625 28.688125 -21.015625 27.328125 C-16.265625 29.203125 -16.265625 29.203125 -14.015625 30.328125 C-10.515625 30.578125 -10.515625 30.578125 -7.015625 30.328125 C-4.79722758 28.46209989 -4.79722758 28.46209989 -4.390625 25.640625 C-5.24419905 21.11668253 -7.53552877 19.69701722 -11.0703125 16.94140625 C-14.31758081 14.24839056 -14.98874862 12.61032697 -15.390625 8.390625 C-15.32087932 5.22882068 -15.15273294 4.50636533 -13.140625 1.890625 C-8.99351606 -1.15871981 -5.00105359 -1.66701786 0 0 Z " fill="#090909" transform="translate(325.015625,17.671875)"/>
<path d="M0 0 C3.57721499 2.47653346 6.67071977 4.74630325 8 9 C8.125 11.75 8.125 11.75 8 14 C7.01 14 6.02 14 5 14 C4.72285156 13.43410156 4.44570313 12.86820313 4.16015625 12.28515625 C3.61681641 11.18494141 3.61681641 11.18494141 3.0625 10.0625 C2.52302734 8.96615234 2.52302734 8.96615234 1.97265625 7.84765625 C1.13628173 6.03750973 1.13628173 6.03750973 0 5 C-2.45809998 4.7499227 -2.45809998 4.7499227 -5 5 C-8.19916201 8.19916201 -7.35957968 12.72000961 -7.390625 17.05859375 C-7.5081356 20.60349671 -7.69681962 22.61267159 -9.9140625 25.4453125 C-13.70623808 28.27169055 -16.26483228 28.4012854 -21 28 C-26.21554609 25.2102893 -28.21308909 20.42062917 -30 15 C-30 14.01 -30 13.02 -30 12 C-28.68 11.67 -27.36 11.34 -26 11 C-25.81824219 11.61488281 -25.63648438 12.22976562 -25.44921875 12.86328125 C-25.19785156 13.67152344 -24.94648438 14.47976562 -24.6875 15.3125 C-24.44386719 16.11300781 -24.20023437 16.91351563 -23.94921875 17.73828125 C-22.9413167 20.13982565 -22.03531063 21.39425242 -20 23 C-17.45769153 23.41679297 -17.45769153 23.41679297 -15 23 C-12.19151163 20.19151163 -12.62128603 17.39200125 -12.5 13.625 C-12.22925632 5.31157642 -12.22925632 5.31157642 -10 2 C-6.77002661 -0.30712385 -3.88595382 -0.54403353 0 0 Z " fill="#060606" transform="translate(469,134)"/>
<path d="M0 0 C3.51832123 1.27401395 6.25812527 2.74296777 9.20703125 5.0390625 C9.95791016 5.61914062 10.70878906 6.19921875 11.48242188 6.796875 C12.25134766 7.40015625 13.02027344 8.0034375 13.8125 8.625 C14.60076172 9.23601563 15.38902344 9.84703125 16.20117188 10.4765625 C18.13820974 11.9792343 20.07092079 13.48713386 22 15 C21.01 15.99 20.02 16.98 19 18 C18.51789063 17.6390625 18.03578125 17.278125 17.5390625 16.90625 C16.90742188 16.4421875 16.27578125 15.978125 15.625 15.5 C14.99851562 15.0359375 14.37203125 14.571875 13.7265625 14.09375 C12.05905387 12.82161899 12.05905387 12.82161899 10 13 C8.56741641 14.61144437 8.56741641 14.61144437 7.13671875 16.7265625 C6.30043945 17.90412109 6.30043945 17.90412109 5.44726562 19.10546875 C4.86654297 19.93691406 4.28582031 20.76835938 3.6875 21.625 C-0.03974025 26.91827212 -3.76978908 32.09517758 -8 37 C-9.32 36.01 -10.64 35.02 -12 34 C-11.45641846 33.29822632 -11.45641846 33.29822632 -10.90185547 32.58227539 C-1.53634581 20.58722025 -1.53634581 20.58722025 7 8 C5.81857422 7.55527344 5.81857422 7.55527344 4.61328125 7.1015625 C2.06170338 6.0260095 0.78441268 5.06616206 -1 3 C-0.67 2.01 -0.34 1.02 0 0 Z " fill="#080808" transform="translate(392,50)"/>
<path d="M0 0 C4.6901504 2.45166953 8.53385525 5.2555028 12.625 8.625 C18.9108249 13.46635504 24.26407269 14.35341503 32 15 C32.66 15.33 33.32 15.66 34 16 C34 17.32 34 18.64 34 20 C33.06542969 19.835 32.13085938 19.67 31.16796875 19.5 C19.40460113 17.87453853 11.16851025 21.06254206 0.71728516 26.36328125 C-0.132771 26.67845703 -0.132771 26.67845703 -1 27 C-1.66 26.67 -2.32 26.34 -3 26 C-2.73852539 24.12011719 -2.73852539 24.12011719 -2 22 C-0.32592773 20.90332031 -0.32592773 20.90332031 1.81640625 20.078125 C2.58017578 19.77519531 3.34394531 19.47226562 4.13085938 19.16015625 C4.93330078 18.85980469 5.73574219 18.55945313 6.5625 18.25 C7.36880859 17.93417969 8.17511719 17.61835938 9.00585938 17.29296875 C10.99853983 16.51476218 12.99862199 15.75555734 15 15 C14.00097656 14.36191406 13.00195312 13.72382813 11.97265625 13.06640625 C10.66922829 12.23183727 9.36584519 11.39719823 8.0625 10.5625 C7.40314453 10.14162109 6.74378906 9.72074219 6.06445312 9.28710938 C1.11328125 6.11328125 1.11328125 6.11328125 0 5 C-0.04063832 3.33382885 -0.042721 1.66611905 0 0 Z " fill="#060606" transform="translate(463,266)"/>
<path d="M0 0 C5.62358804 1.54603465 10.20021006 4.28773097 15.125 7.3125 C15.92292969 7.78623047 16.72085937 8.25996094 17.54296875 8.74804688 C21.78371191 11.33567897 25.40918021 13.62579748 28 18 C28.27734375 20.3515625 28.27734375 20.3515625 27.9375 22.625 C27.79634766 23.75808594 27.79634766 23.75808594 27.65234375 24.9140625 C26.89944121 27.32154726 25.90048382 28.38278613 24 30 C23.01 29.67 22.02 29.34 21 29 C21.33 28.278125 21.66 27.55625 22 26.8125 C23.04287153 23.87942381 23.35164047 22.07805833 23 19 C21.56794205 17.39698917 21.56794205 17.39698917 19.4375 16.25 C18.633125 15.75757813 17.82875 15.26515625 17 14.7578125 C16.01 14.17773438 15.02 13.59765625 14 13 C12.68647496 12.20742548 11.37404513 11.41303409 10.0625 10.6171875 C6.38634183 8.39206415 2.69630158 6.19148315 -1 4 C-0.67 2.68 -0.34 1.36 0 0 Z " fill="#070707" transform="translate(438,355)"/>
<path d="M0 0 C4.95 0.33 9.9 0.66 15 1 C15 9.15789474 15 9.15789474 13 12 C10 14 10 14 6.5 13.875 C3 13 3 13 1.0625 11.5 C-0.58090609 7.63316213 -0.18437251 4.17911016 0 0 Z " fill="#F2F2F2" transform="translate(32,227)"/>
<path d="M0 0 C2.89390483 2.52289139 4.7655194 4.37471839 6.125 8 C6 11 6 11 3.875 13.875 C1 16 1 16 -1.4375 16.75 C-5.43386586 15.58033194 -7.95963904 12.58213748 -10 9 C-8.77946141 5.33838422 -7.63217696 4.83729526 -4.4375 2.8125 C-3.61121094 2.28269531 -2.78492188 1.75289063 -1.93359375 1.20703125 C-1.29550781 0.80871094 -0.65742187 0.41039062 0 0 Z " fill="#F6F6F6" transform="translate(65,378)"/>
<path d="M0 0 C8.81415929 -0.29380531 8.81415929 -0.29380531 12 2 C13.43735246 4.87470493 13.38172649 6.81894588 13 10 C10.83746443 12.56801099 9.2778092 13.85355976 5.88671875 14.2421875 C3.92283161 14.24916401 1.95940162 14.13284079 0 14 C0 9.38 0 4.76 0 0 Z " fill="#F3F3F3" transform="translate(262,12)"/>
<path d="M0 0 C5.37431199 4.7469604 8.9860245 10.65106045 12.875 16.625 C13.57625 17.67429687 14.2775 18.72359375 15 19.8046875 C15.65742188 20.81015625 16.31484375 21.815625 16.9921875 22.8515625 C17.59401855 23.76760254 18.19584961 24.68364258 18.81591797 25.62744141 C20 28 20 28 19 31 C17.27050781 30.87524414 17.27050781 30.87524414 15 30 C13.39164701 28.02087579 12.03411314 26.133678 10.671875 23.99609375 C10.08107147 23.09927635 10.08107147 23.09927635 9.47833252 22.18434143 C8.22453099 20.2756817 6.98720709 18.35694803 5.75 16.4375 C4.90210665 15.14057916 4.05316029 13.84434609 3.203125 12.54882812 C1.12311993 9.3737329 -0.94217113 6.18950826 -3 3 C-2.01 2.01 -1.02 1.02 0 0 Z " fill="#0B0B0B" transform="translate(120,49)"/>
<path d="M0 0 C1.32 0.33 2.64 0.66 4 1 C1.924826 7.55745221 -0.98369338 13.61336958 -3.9375 19.8125 C-4.47568359 20.96943359 -5.01386719 22.12636719 -5.56835938 23.31835938 C-6.35243164 24.96481445 -6.35243164 24.96481445 -7.15234375 26.64453125 C-7.62663818 27.64846924 -8.10093262 28.65240723 -8.58959961 29.68676758 C-10 32 -10 32 -13 33 C-13.66 32.67 -14.32 32.34 -15 32 C-13.66017669 27.6865604 -11.99589931 23.75658491 -9.9609375 19.7265625 C-9.38085938 18.57285156 -8.80078125 17.41914062 -8.203125 16.23046875 C-7.59383809 15.02860117 -6.98446198 13.82677881 -6.375 12.625 C-5.75744122 11.39992668 -5.14025018 10.1746679 -4.5234375 8.94921875 C-3.01922833 5.96430368 -1.51130878 2.98132497 0 0 Z " fill="#070707" transform="translate(362,33)"/>
<path d="M0 0 C1.859375 1.328125 1.859375 1.328125 3.859375 4.328125 C4.234375 7.328125 4.234375 7.328125 3.859375 10.328125 C2.171875 12.265625 2.171875 12.265625 -0.140625 13.328125 C-2.99591982 13.40133769 -4.47800225 12.95091797 -6.5703125 10.984375 C-10.140625 6.86943856 -10.140625 6.86943856 -10.140625 4.328125 C-8.53125 2.96875 -8.53125 2.96875 -6.390625 1.578125 C-5.69453125 1.10890625 -4.9984375 0.6396875 -4.28125 0.15625 C-2.140625 -0.671875 -2.140625 -0.671875 0 0 Z " fill="#F3F3F3" transform="translate(79.140625,370.671875)"/>
<path d="M0 0 C0.33 3.3 0.66 6.6 1 10 C-5.08233706 9.32418477 -11.01314152 8.26361972 -17 7 C-15.49749316 3.99498632 -13.24430136 3.63911858 -10.1875 2.375 C-9.12917969 1.92898437 -8.07085937 1.48296875 -6.98046875 1.0234375 C-4 0 -4 0 0 0 Z " fill="#E5E5E5" transform="translate(483,231)"/>
<path d="M0 0 C2.375 0.875 2.375 0.875 4.375 3.875 C3.81944444 9.43055556 3.81944444 9.43055556 2.375 10.875 C-1.0625 11.125 -1.0625 11.125 -4.625 10.875 C-6.77262184 7.65356724 -7.186068 6.6154533 -6.625 2.875 C-4.39928105 0.40197895 -3.34204055 -0.15914479 0 0 Z " fill="#060606" transform="translate(474.625,181.125)"/>
<path d="M0 0 C4.18185421 3.52587708 8.19095875 7.07553326 12 11 C11 14 11 14 8.125 15.75 C5 17 5 17 2 16 C1.34 10.72 0.68 5.44 0 0 Z " fill="#E9E9E9" transform="translate(350,445)"/>
<path d="M0 0 C3.5625 0.1875 3.5625 0.1875 5.5625 2.1875 C5.8125 5.1875 5.8125 5.1875 5.5625 8.1875 C3.5625 10.1875 3.5625 10.1875 0.0625 10.5 C-1.67 10.3453125 -1.67 10.3453125 -3.4375 10.1875 C-5.4375 7.1875 -5.4375 7.1875 -5.125 4.0625 C-4.20842511 0.22955046 -4.20842511 0.22955046 0 0 Z " fill="#050505" transform="translate(37.4375,181.8125)"/>
<path d="M0 0 C0 3.86474861 -1.34492416 6.20494458 -3 9.6875 C-3.556875 10.86699219 -4.11375 12.04648437 -4.6875 13.26171875 C-5.3371875 14.61716797 -5.3371875 14.61716797 -6 16 C-7.17539996 15.07347299 -8.34010577 14.13336613 -9.5 13.1875 C-10.1496875 12.66542969 -10.799375 12.14335937 -11.46875 11.60546875 C-13 10 -13 10 -13 7 C-8.71 4.69 -4.42 2.38 0 0 Z " fill="#EFEFEF" transform="translate(111,411)"/>
<path d="M0 0 C-2.64 4.29 -5.28 8.58 -8 13 C-10.31 11.02 -12.62 9.04 -15 7 C-14 4 -14 4 -11.34765625 2.578125 C-10.26355469 2.13984375 -9.17945313 1.7015625 -8.0625 1.25 C-6.98097656 0.80140625 -5.89945312 0.3528125 -4.78515625 -0.109375 C-2 -1 -2 -1 0 0 Z " fill="#F2F2F2" transform="translate(438,97)"/>
<path d="M0 0 C5.28 0 10.56 0 16 0 C15.01 3.3 14.02 6.6 13 10 C8.59204592 7.09720097 4.24334566 4.14007579 0 1 C0 0.67 0 0.34 0 0 Z " fill="#F7F7F7" transform="translate(458,323)"/>
<path d="M0 0 C0.33 0 0.66 0 1 0 C1 5.28 1 10.56 1 16 C0.34 15.34 -0.32 14.68 -1 14 C-1.12375 14.639375 -1.2475 15.27875 -1.375 15.9375 C-1.58125 16.618125 -1.7875 17.29875 -2 18 C-2.66 18.33 -3.32 18.66 -4 19 C-2.75297849 12.64549677 -1.42635741 6.31672565 0 0 Z " fill="#017EC0" transform="translate(328,231)"/>
<path d="M0 0 C0 0.66 0 1.32 0 2 C1.32 2.33 2.64 2.66 4 3 C1.37764986 3.86316536 -1.24733452 4.71580779 -3.875 5.5625 C-4.62136719 5.80935547 -5.36773437 6.05621094 -6.13671875 6.31054688 C-11.7734375 8.11328125 -11.7734375 8.11328125 -14 7 C-12.04480616 5.82807953 -10.0857461 4.6626071 -8.125 3.5 C-7.03445312 2.8503125 -5.94390625 2.200625 -4.8203125 1.53125 C-2 0 -2 0 0 0 Z " fill="#ED1E1C" transform="translate(202,192)"/>
<path d="M0 0 C0.9584336 2.87530081 1.06656387 4.29049931 0.87890625 7.23046875 C0.83056641 8.03291016 0.78222656 8.83535156 0.73242188 9.66210938 C0.67634766 10.49548828 0.62027344 11.32886719 0.5625 12.1875 C0.51029297 13.03248047 0.45808594 13.87746094 0.40429688 14.74804688 C0.27476311 16.83236299 0.13806823 18.91623182 0 21 C-0.33 21 -0.66 21 -1 21 C-1.07347656 20.06027344 -1.07347656 20.06027344 -1.1484375 19.1015625 C-1.22320312 18.28429687 -1.29796875 17.46703125 -1.375 16.625 C-1.44460937 15.81289063 -1.51421875 15.00078125 -1.5859375 14.1640625 C-1.82892588 11.79665809 -1.82892588 11.79665809 -4 10 C-2.68 6.7 -1.36 3.4 0 0 Z " fill="#2B8EC7" transform="translate(159,305)"/>
<path d="M0 0 C3.33333333 3.33333333 6.66666667 6.66666667 10 10 C9.67 10.66 9.34 11.32 9 12 C4.33716394 8.48417174 1.27789598 5.96351455 0 0 Z " fill="#249469" transform="translate(243,143)"/>
<path d="M0 0 C0 0.66 0 1.32 0 2 C0.66 2.33 1.32 2.66 2 3 C-6.03571429 5.27678571 -6.03571429 5.27678571 -10 4 C-8.71086513 3.32845067 -7.41859796 2.66291141 -6.125 2 C-5.40570313 1.62875 -4.68640625 1.2575 -3.9453125 0.875 C-2 0 -2 0 0 0 Z " fill="#EE2120" transform="translate(348,304)"/>
<path d="M0 0 C0.66 0 1.32 0 2 0 C1.51171875 6.0546875 1.51171875 6.0546875 1 8 C0.01 8.66 -0.98 9.32 -2 10 C-1.34 6.7 -0.68 3.4 0 0 Z " fill="#0A84C2" transform="translate(326,240)"/>
</svg>
